<svg xmlns="http://www.w3.org/2000/svg" version="1.1" xmlns:xlink="http://www.w3.org/1999/xlink" width="1500" height="1500" viewBox="0 0 1500 1500"><rect width="1500" height="1500" x="0" y="0" id="background" stroke="transparent" fill="#ffffff"></rect><svg xml:space="preserve" width="1000" height="1000" data-version="2" data-id="lg_5MuVectGioiqaOJEea" viewBox="0 0 571 321" x="250" y="250"><rect width="100%" height="100%" fill="transparent"></rect><path fill="#ff2aea" d="M565.041 101.704c-4.214-23.736-35.525-36.788-95.702-39.897q-6.85-.347-14.03-.52a90.747 90.747 0 0 0-34.026-42.502h.063a91.062 91.062 0 0 0-126.446 24.7 279.341 279.341 0 0 1-9.784 13.587 296.702 296.702 0 0 1-10.022-13.809C249.758 5.76 200.728-7.447 159.98 12.252c-40.746 19.699-60.844 66.331-47.188 109.48a505.024 505.024 0 0 0-14.804 6.028c-55.426 23.641-80.33 46.667-76.1 70.403 4.23 23.737 35.51 36.788 95.686 39.897q13.099.663 27.382.663c18.828 0 39.123-.868 60.413-2.572a452.943 452.943 0 0 0 25.599 20.374l54.18 40.102 54.179-40.102a456.1 456.1 0 0 0 61.423-54.574c33-8.98 62.97-19.08 88.174-29.844 51.418-21.937 76.575-43.337 76.575-65.274q0-2.557-.458-5.13m-446.078 109.56c-56.563-2.92-70.135-14.788-70.672-17.803 0-.331 1.5-15.97 60.224-41.033q7.733-3.298 16.082-6.502a452.943 452.943 0 0 0 53.706 65.117c-21.385 1.073-41.349 1.152-59.34.22m359.435-63.822a563.417 563.417 0 0 1-46.226 17.171q7.165-9.5 13.825-19.396a90.589 90.589 0 0 0 15.34-56.91l6.613.3c28.281 1.452 45.831 5.145 56.358 8.854 10.526 3.708 14.046 7.433 14.314 8.932.537 3.015-8.112 18.812-60.224 41.05"></path><path fill="none" stroke="#ff2aea" stroke-width="2.31" d="M103.95 177.08H84.3l-2.44-8.15H61.62l-2.44 8.15H40.2l21.08-57.79h21.59zm-32.34-41.66L65.48 156H78l-6.05-20.58zm63.59-17.14q11.09 0 18.23 4.5 7.14 4.49 7.31 13.31v1.01h-17.39v-.34q0-2.52-1.85-4.2-1.85-1.68-5.63-1.68-3.69 0-5.67 1.09-1.97 1.1-1.97 2.69 0 2.27 2.69 3.36 2.68 1.09 8.65 2.27 6.97 1.43 11.46 2.98 4.5 1.56 7.86 5.08 3.36 3.53 3.44 9.58 0 10.25-6.93 15.2-6.93 4.96-18.52 4.96-13.52 0-21.04-4.54-7.52-4.53-7.52-16.04h17.56q0 4.37 2.26 5.84 2.27 1.47 7.06 1.47 3.53 0 5.84-.76 2.31-.75 2.31-3.11 0-2.1-2.56-3.15-2.57-1.05-8.36-2.22-7.06-1.51-11.68-3.15t-8.06-5.42q-3.45-3.78-3.45-10.25 0-9.49 7.35-13.98 7.35-4.5 18.61-4.5zm55.78 58.8h-18.57v-57.79h18.57zm13.27 0v-57.79h18.56v43.01h29.65v14.78zm75.43 0h-18.56v-57.79h18.56zm13.27 0v-57.79h46.71v13.86h-28.14v9.91h24.19v13.27h-24.19v20.75zm56.03 0v-57.79h18.56v43.01h29.66v14.78zm84.76-58.8q14.95 0 23.1 7.65 8.14 7.64 8.14 22.26 0 14.61-8.14 22.26-8.15 7.64-23.1 7.64-14.96 0-23.06-7.6-8.11-7.6-8.11-22.3 0-14.7 8.11-22.31 8.1-7.6 23.06-7.6zm0 13.86q-5.97 0-9.08 3.61-3.1 3.62-3.1 9.75v5.37q0 6.14 3.1 9.75 3.11 3.61 9.08 3.61 5.96 0 9.11-3.61 3.15-3.61 3.15-9.75v-5.37q0-6.13-3.15-9.75-3.15-3.61-9.11-3.61zm105.08 44.94h-20.41l-7.48-35.19h-.33l-7.48 35.19h-20.41l-13.53-57.79h19.32l6.64 32.76h.34l6.55-32.76h18.31l6.97 32.76h.34l6.21-32.76h18.48z"></path><path fill="#fff" d="M103.95 177.08H84.3l-2.44-8.15H61.62l-2.44 8.15H40.2l21.08-57.79h21.59zm-32.34-41.66L65.48 156H78l-6.05-20.58z"></path><rect width="63.75" height="57.79" x="-31.88" y="-28.89" fill="none" rx="0" ry="0" transform="translate(72.58 148.69)"></rect><path fill="#fff" d="M135.2 118.28q11.09 0 18.23 4.5 7.14 4.49 7.31 13.31v1.01h-17.39v-.34q0-2.52-1.85-4.2-1.85-1.68-5.63-1.68-3.69 0-5.67 1.09-1.97 1.1-1.97 2.69 0 2.27 2.69 3.36 2.68 1.09 8.65 2.27 6.97 1.43 11.46 2.98 4.5 1.56 7.86 5.08 3.36 3.53 3.44 9.58 0 10.25-6.93 15.2-6.93 4.96-18.52 4.96-13.52 0-21.04-4.54-7.52-4.53-7.52-16.04h17.56q0 4.37 2.26 5.84 2.27 1.47 7.06 1.47 3.53 0 5.84-.76 2.31-.75 2.31-3.11 0-2.1-2.56-3.15-2.57-1.05-8.36-2.22-7.06-1.51-11.68-3.15t-8.06-5.42q-3.45-3.78-3.45-10.25 0-9.49 7.35-13.98 7.35-4.5 18.61-4.5"></path><rect width="54.01" height="59.81" x="-27" y="-29.91" fill="none" rx="0" ry="0" transform="translate(135.82 148.69)"></rect><path fill="#fff" d="M190.98 177.08h-18.57v-57.79h18.57z"></path><rect width="18.57" height="57.79" x="-9.29" y="-28.89" fill="none" rx="0" ry="0" transform="translate(182.2 148.69)"></rect><path fill="#fff" d="M204.25 177.08v-57.79h18.56v43.01h29.65v14.78z"></path><rect width="48.21" height="57.79" x="-24.11" y="-28.89" fill="none" rx="0" ry="0" transform="translate(228.85 148.69)"></rect><path fill="#fff" d="M279.68 177.08h-18.56v-57.79h18.56z"></path><rect width="18.56" height="57.79" x="-9.28" y="-28.89" fill="none" rx="0" ry="0" transform="translate(270.9 148.69)"></rect><path fill="#fff" d="M292.95 177.08v-57.79h46.71v13.86h-28.14v9.91h24.19v13.27h-24.19v20.75z"></path><rect width="46.71" height="57.79" x="-23.36" y="-28.89" fill="none" rx="0" ry="0" transform="translate(316.8 148.69)"></rect><path fill="#fff" d="M348.98 177.08v-57.79h18.56v43.01h29.66v14.78z"></path><rect width="48.22" height="57.79" x="-24.11" y="-28.89" fill="none" rx="0" ry="0" transform="translate(373.59 148.69)"></rect><path fill="#fff" d="M433.74 118.28q14.95 0 23.1 7.65 8.14 7.64 8.14 22.26 0 14.61-8.14 22.26-8.15 7.64-23.1 7.64-14.96 0-23.06-7.6-8.11-7.6-8.11-22.3 0-14.7 8.11-22.31 8.1-7.6 23.06-7.6m0 13.86q-5.97 0-9.08 3.61-3.1 3.62-3.1 9.75v5.37q0 6.14 3.1 9.75 3.11 3.61 9.08 3.61 5.96 0 9.11-3.61 3.15-3.61 3.15-9.75v-5.37q0-6.13-3.15-9.75-3.15-3.61-9.11-3.61"></path><rect width="62.41" height="59.81" x="-31.2" y="-29.91" fill="none" rx="0" ry="0" transform="translate(434.27 148.69)"></rect><path fill="#fff" d="M538.82 177.08h-20.41l-7.48-35.19h-.33l-7.48 35.19h-20.41l-13.53-57.79h19.32l6.64 32.76h.34l6.55-32.76h18.31l6.97 32.76h.34l6.21-32.76h18.48z"></path><rect width="83.16" height="57.79" x="-41.58" y="-28.89" fill="none" rx="0" ry="0" transform="translate(511.26 148.69)"></rect><path fill="#ff2aea" d="m62.045 3.156 7.651 28.41A29.067 29.067 0 0 0 90.19 52.06l28.41 7.652-28.41 7.65a29.067 29.067 0 0 0-20.494 20.495l-7.651 28.41-7.651-28.41A29.067 29.067 0 0 0 33.9 67.363L5.495 59.706l28.41-7.651A29.067 29.067 0 0 0 54.4 31.56zM415.37 219.441l5.139 19.081a19.522 19.522 0 0 0 13.764 13.764l19.08 5.139-19.08 5.138a19.522 19.522 0 0 0-13.764 13.764l-5.139 19.082-5.139-19.082a19.522 19.522 0 0 0-13.764-13.764l-19.077-5.142 19.081-5.139a19.522 19.522 0 0 0 13.764-13.764zm53.423 41.007 3.882 14.414a14.747 14.747 0 0 0 10.397 10.397l14.414 3.882-14.414 3.882a14.747 14.747 0 0 0-10.397 10.397l-3.882 14.414-3.882-14.414a14.747 14.747 0 0 0-10.397-10.397l-14.411-3.885 14.414-3.882a14.747 14.747 0 0 0 10.397-10.397z"></path></svg></svg>